<svg xmlns="http://www.w3.org/2000/svg" width="848" height="125" viewBox="0 0 848 125" fill="none"><rect x="5.5" y="17.5" width="837" height="90" rx="45" fill="#A56937" stroke="white" stroke-width="10"></rect><rect x="431.5" y="17.5" width="411" height="90" rx="45" fill="#6FC064" stroke="white" stroke-width="10"></rect><path d="M91.8486 45.6172V70.5H86.7217V45.6172H91.8486ZM101.761 56.2471V60.2461H90.4473V56.2471H101.761ZM102.957 45.6172V49.6333H90.4473V45.6172H102.957ZM104.461 61.4424V61.0835C104.461 59.7277 104.655 58.4801 105.042 57.3408C105.429 56.1901 105.993 55.1932 106.734 54.3501C107.474 53.507 108.386 52.8519 109.468 52.3848C110.551 51.9062 111.792 51.667 113.194 51.667C114.595 51.667 115.843 51.9062 116.937 52.3848C118.03 52.8519 118.947 53.507 119.688 54.3501C120.44 55.1932 121.01 56.1901 121.397 57.3408C121.784 58.4801 121.978 59.7277 121.978 61.0835V61.4424C121.978 62.7868 121.784 64.0343 121.397 65.1851C121.01 66.3244 120.44 67.3213 119.688 68.1758C118.947 69.0189 118.036 69.674 116.954 70.1411C115.871 70.6082 114.629 70.8418 113.228 70.8418C111.827 70.8418 110.579 70.6082 109.485 70.1411C108.403 69.674 107.486 69.0189 106.734 68.1758C105.993 67.3213 105.429 66.3244 105.042 65.1851C104.655 64.0343 104.461 62.7868 104.461 61.4424ZM109.383 61.0835V61.4424C109.383 62.2171 109.451 62.9406 109.588 63.6128C109.725 64.285 109.941 64.8774 110.237 65.3901C110.545 65.8914 110.944 66.2845 111.434 66.5693C111.924 66.8542 112.522 66.9966 113.228 66.9966C113.912 66.9966 114.498 66.8542 114.988 66.5693C115.478 66.2845 115.871 65.8914 116.167 65.3901C116.464 64.8774 116.68 64.285 116.817 63.6128C116.965 62.9406 117.039 62.2171 117.039 61.4424V61.0835C117.039 60.3315 116.965 59.6252 116.817 58.9644C116.68 58.2922 116.458 57.6997 116.15 57.187C115.854 56.6629 115.461 56.2528 114.971 55.9565C114.481 55.6603 113.889 55.5122 113.194 55.5122C112.499 55.5122 111.906 55.6603 111.417 55.9565C110.938 56.2528 110.545 56.6629 110.237 57.187C109.941 57.6997 109.725 58.2922 109.588 58.9644C109.451 59.6252 109.383 60.3315 109.383 61.0835ZM129.925 56.042V70.5H125.003V52.0088H129.634L129.925 56.042ZM135.496 51.8892L135.411 56.4521C135.171 56.418 134.881 56.3895 134.539 56.3667C134.209 56.3325 133.907 56.3154 133.633 56.3154C132.938 56.3154 132.334 56.4066 131.822 56.5889C131.32 56.7598 130.899 57.0161 130.557 57.3579C130.227 57.6997 129.976 58.1156 129.805 58.6055C129.646 59.0954 129.555 59.6536 129.532 60.2803L128.541 59.9727C128.541 58.7764 128.66 57.6769 128.899 56.6743C129.139 55.6603 129.486 54.7773 129.942 54.0254C130.409 53.2734 130.979 52.6924 131.651 52.2822C132.323 51.8721 133.092 51.667 133.958 51.667C134.231 51.667 134.511 51.6898 134.795 51.7354C135.08 51.7695 135.314 51.8208 135.496 51.8892ZM156.961 49.8726L150.193 70.5H144.742L153.987 45.6172H157.457L156.961 49.8726ZM162.583 70.5L155.799 49.8726L155.252 45.6172H158.755L168.052 70.5H162.583ZM162.276 61.2373V65.2534H149.134V61.2373H162.276ZM174.324 55.9565V70.5H169.402V52.0088H174.017L174.324 55.9565ZM173.606 60.605H172.273C172.273 59.2378 172.45 58.0073 172.803 56.9136C173.156 55.8084 173.652 54.8685 174.29 54.0938C174.928 53.3076 175.686 52.7095 176.563 52.2993C177.452 51.8778 178.443 51.667 179.537 51.667C180.403 51.667 181.194 51.7923 181.912 52.043C182.63 52.2936 183.245 52.6924 183.758 53.2393C184.282 53.7861 184.681 54.5096 184.954 55.4097C185.239 56.3097 185.381 57.4092 185.381 58.708V70.5H180.425V58.6909C180.425 57.8706 180.311 57.2326 180.083 56.7769C179.856 56.3211 179.52 56.0021 179.075 55.8198C178.642 55.6261 178.107 55.5293 177.469 55.5293C176.808 55.5293 176.233 55.6603 175.743 55.9224C175.264 56.1844 174.865 56.549 174.546 57.0161C174.239 57.4718 174.005 58.0073 173.846 58.6226C173.686 59.2378 173.606 59.8986 173.606 60.605ZM194.61 68.415L199.515 52.0088H204.795L197.361 73.2856C197.202 73.7528 196.985 74.2541 196.712 74.7896C196.45 75.325 196.091 75.832 195.635 76.3105C195.191 76.8005 194.627 77.1992 193.943 77.5068C193.271 77.8145 192.445 77.9683 191.465 77.9683C190.998 77.9683 190.617 77.9398 190.32 77.8828C190.024 77.8258 189.671 77.7461 189.261 77.6436V74.0376C189.386 74.0376 189.517 74.0376 189.654 74.0376C189.791 74.049 189.922 74.0547 190.047 74.0547C190.696 74.0547 191.226 73.9806 191.636 73.8325C192.046 73.6844 192.377 73.4565 192.627 73.1489C192.878 72.8527 193.077 72.4653 193.226 71.9868L194.61 68.415ZM192.559 52.0088L196.575 65.4072L197.276 70.6196L193.926 70.9785L187.278 52.0088H192.559ZM229.302 66.8086L236.036 72.1406L232.806 74.9434L226.175 69.6113L229.302 66.8086ZM236.207 57.4775V58.6567C236.207 60.548 235.95 62.2456 235.438 63.7495C234.936 65.2534 234.213 66.5352 233.267 67.5947C232.321 68.6429 231.205 69.4461 229.917 70.0044C228.63 70.5627 227.2 70.8418 225.628 70.8418C224.067 70.8418 222.637 70.5627 221.338 70.0044C220.04 69.4461 218.917 68.6429 217.972 67.5947C217.026 66.5352 216.291 65.2534 215.767 63.7495C215.254 62.2456 214.998 60.548 214.998 58.6567V57.4775C214.998 55.5749 215.254 53.8773 215.767 52.3848C216.291 50.8809 217.02 49.5991 217.955 48.5396C218.889 47.48 220.005 46.6711 221.304 46.1128C222.603 45.5545 224.033 45.2754 225.594 45.2754C227.166 45.2754 228.596 45.5545 229.883 46.1128C231.182 46.6711 232.304 47.48 233.25 48.5396C234.196 49.5991 234.925 50.8809 235.438 52.3848C235.95 53.8773 236.207 55.5749 236.207 57.4775ZM231.028 58.6567V57.4434C231.028 56.1217 230.903 54.9596 230.652 53.957C230.413 52.9544 230.06 52.1113 229.593 51.4277C229.137 50.7441 228.573 50.2314 227.901 49.8896C227.229 49.5365 226.46 49.3599 225.594 49.3599C224.728 49.3599 223.959 49.5365 223.287 49.8896C222.614 50.2314 222.05 50.7441 221.595 51.4277C221.139 52.1113 220.792 52.9544 220.552 53.957C220.313 54.9596 220.193 56.1217 220.193 57.4434V58.6567C220.193 59.967 220.313 61.1291 220.552 62.1431C220.792 63.1457 221.139 63.9945 221.595 64.6895C222.062 65.373 222.632 65.8914 223.304 66.2446C223.987 66.5978 224.762 66.7744 225.628 66.7744C226.494 66.7744 227.257 66.5978 227.918 66.2446C228.59 65.8914 229.154 65.373 229.61 64.6895C230.077 63.9945 230.43 63.1457 230.669 62.1431C230.909 61.1291 231.028 59.967 231.028 58.6567ZM250.545 66.0737V52.0088H255.467V70.5H250.835L250.545 66.0737ZM251.092 62.2798L252.544 62.2456C252.544 63.4761 252.402 64.6211 252.117 65.6807C251.832 66.7288 251.405 67.6403 250.835 68.415C250.266 69.1784 249.548 69.7765 248.682 70.2095C247.816 70.631 246.797 70.8418 245.623 70.8418C244.723 70.8418 243.891 70.7165 243.128 70.4658C242.376 70.2038 241.727 69.7993 241.18 69.2524C240.644 68.6942 240.223 67.9821 239.915 67.1162C239.619 66.2389 239.471 65.1851 239.471 63.9546V52.0088H244.393V63.9888C244.393 64.5356 244.455 64.9971 244.581 65.373C244.717 65.749 244.905 66.0566 245.145 66.2959C245.384 66.5352 245.663 66.7061 245.982 66.8086C246.312 66.9111 246.677 66.9624 247.076 66.9624C248.09 66.9624 248.887 66.7573 249.468 66.3472C250.061 65.937 250.477 65.3787 250.716 64.6724C250.966 63.9546 251.092 63.1571 251.092 62.2798ZM267.737 70.8418C266.302 70.8418 265.014 70.6139 263.875 70.1582C262.736 69.6911 261.767 69.0474 260.97 68.2271C260.184 67.4067 259.58 66.4554 259.158 65.373C258.737 64.2793 258.526 63.1172 258.526 61.8867V61.2031C258.526 59.8018 258.725 58.52 259.124 57.3579C259.523 56.1958 260.092 55.1875 260.833 54.333C261.585 53.4785 262.496 52.8234 263.567 52.3677C264.638 51.9006 265.846 51.667 267.19 51.667C268.501 51.667 269.663 51.8835 270.677 52.3164C271.691 52.7493 272.54 53.3646 273.223 54.1621C273.918 54.9596 274.442 55.9167 274.795 57.0332C275.149 58.1383 275.325 59.3688 275.325 60.7246V62.7754H260.628V59.4941H270.489V59.1182C270.489 58.4346 270.363 57.825 270.113 57.2896C269.874 56.7427 269.509 56.3097 269.019 55.9907C268.529 55.6717 267.903 55.5122 267.139 55.5122C266.49 55.5122 265.931 55.6546 265.464 55.9395C264.997 56.2243 264.616 56.623 264.319 57.1357C264.035 57.6484 263.818 58.2523 263.67 58.9473C263.533 59.6309 263.465 60.3828 263.465 61.2031V61.8867C263.465 62.6273 263.567 63.3109 263.772 63.9375C263.989 64.5641 264.291 65.1053 264.678 65.561C265.077 66.0168 265.556 66.37 266.114 66.6206C266.683 66.8713 267.327 66.9966 268.045 66.9966C268.934 66.9966 269.76 66.8257 270.523 66.4839C271.298 66.1307 271.964 65.6009 272.522 64.8945L274.915 67.4922C274.528 68.0505 273.998 68.5859 273.326 69.0986C272.665 69.6113 271.867 70.0329 270.933 70.3633C269.999 70.6823 268.934 70.8418 267.737 70.8418ZM283.05 56.042V70.5H278.128V52.0088H282.759L283.05 56.042ZM288.621 51.8892L288.536 56.4521C288.296 56.418 288.006 56.3895 287.664 56.3667C287.334 56.3325 287.032 56.3154 286.758 56.3154C286.063 56.3154 285.459 56.4066 284.947 56.5889C284.445 56.7598 284.024 57.0161 283.682 57.3579C283.352 57.6997 283.101 58.1156 282.93 58.6055C282.771 59.0954 282.68 59.6536 282.657 60.2803L281.666 59.9727C281.666 58.7764 281.785 57.6769 282.024 56.6743C282.264 55.6603 282.611 54.7773 283.067 54.0254C283.534 53.2734 284.104 52.6924 284.776 52.2822C285.448 51.8721 286.217 51.667 287.083 51.667C287.356 51.667 287.636 51.6898 287.92 51.7354C288.205 51.7695 288.439 51.8208 288.621 51.8892ZM296.141 52.0088V70.5H291.202V52.0088H296.141ZM290.894 47.1895C290.894 46.4717 291.145 45.8792 291.646 45.4121C292.147 44.945 292.819 44.7114 293.663 44.7114C294.494 44.7114 295.161 44.945 295.662 45.4121C296.175 45.8792 296.431 46.4717 296.431 47.1895C296.431 47.9072 296.175 48.4997 295.662 48.9668C295.161 49.4339 294.494 49.6675 293.663 49.6675C292.819 49.6675 292.147 49.4339 291.646 48.9668C291.145 48.4997 290.894 47.9072 290.894 47.1895ZM308.719 70.8418C307.283 70.8418 305.996 70.6139 304.856 70.1582C303.717 69.6911 302.749 69.0474 301.951 68.2271C301.165 67.4067 300.561 66.4554 300.14 65.373C299.718 64.2793 299.507 63.1172 299.507 61.8867V61.2031C299.507 59.8018 299.707 58.52 300.105 57.3579C300.504 56.1958 301.074 55.1875 301.814 54.333C302.566 53.4785 303.478 52.8234 304.549 52.3677C305.62 51.9006 306.827 51.667 308.172 51.667C309.482 51.667 310.644 51.8835 311.658 52.3164C312.672 52.7493 313.521 53.3646 314.205 54.1621C314.9 54.9596 315.424 55.9167 315.777 57.0332C316.13 58.1383 316.307 59.3688 316.307 60.7246V62.7754H301.609V59.4941H311.47V59.1182C311.47 58.4346 311.345 57.825 311.094 57.2896C310.855 56.7427 310.49 56.3097 310 55.9907C309.511 55.6717 308.884 55.5122 308.121 55.5122C307.471 55.5122 306.913 55.6546 306.446 55.9395C305.979 56.2243 305.597 56.623 305.301 57.1357C305.016 57.6484 304.799 58.2523 304.651 58.9473C304.515 59.6309 304.446 60.3828 304.446 61.2031V61.8867C304.446 62.6273 304.549 63.3109 304.754 63.9375C304.97 64.5641 305.272 65.1053 305.66 65.561C306.058 66.0168 306.537 66.37 307.095 66.6206C307.665 66.8713 308.309 66.9966 309.026 66.9966C309.915 66.9966 310.741 66.8257 311.504 66.4839C312.279 66.1307 312.946 65.6009 313.504 64.8945L315.896 67.4922C315.509 68.0505 314.979 68.5859 314.307 69.0986C313.646 69.6113 312.849 70.0329 311.915 70.3633C310.98 70.6823 309.915 70.8418 308.719 70.8418ZM329.107 65.3901C329.107 65.0369 329.004 64.7179 328.799 64.4331C328.594 64.1483 328.213 63.8862 327.654 63.647C327.107 63.3963 326.316 63.1685 325.279 62.9634C324.345 62.7583 323.473 62.502 322.664 62.1943C321.867 61.8753 321.172 61.4937 320.579 61.0493C319.998 60.605 319.542 60.0809 319.212 59.4771C318.882 58.8618 318.716 58.1611 318.716 57.375C318.716 56.6003 318.882 55.8711 319.212 55.1875C319.554 54.5039 320.038 53.9001 320.665 53.376C321.303 52.8405 322.077 52.4246 322.989 52.1284C323.912 51.8208 324.948 51.667 326.099 51.667C327.706 51.667 329.084 51.9233 330.235 52.436C331.397 52.9487 332.286 53.6551 332.901 54.5552C333.528 55.4438 333.841 56.4578 333.841 57.5972H328.919C328.919 57.1187 328.816 56.6914 328.611 56.3154C328.418 55.9281 328.11 55.6261 327.688 55.4097C327.278 55.1818 326.743 55.0679 326.082 55.0679C325.535 55.0679 325.062 55.1647 324.664 55.3584C324.265 55.5407 323.957 55.7913 323.741 56.1104C323.536 56.418 323.433 56.7598 323.433 57.1357C323.433 57.4206 323.49 57.6769 323.604 57.9048C323.729 58.1213 323.929 58.3206 324.202 58.5029C324.476 58.6852 324.829 58.8561 325.262 59.0156C325.706 59.1637 326.253 59.3005 326.902 59.4258C328.235 59.6992 329.426 60.0581 330.474 60.5024C331.522 60.9354 332.354 61.5278 332.969 62.2798C333.584 63.0203 333.892 63.9945 333.892 65.2021C333.892 66.0225 333.71 66.7744 333.345 67.458C332.981 68.1416 332.457 68.7397 331.773 69.2524C331.089 69.7537 330.269 70.1468 329.312 70.4316C328.366 70.7051 327.301 70.8418 326.116 70.8418C324.396 70.8418 322.938 70.5342 321.741 69.9189C320.556 69.3037 319.656 68.5233 319.041 67.5776C318.437 66.6206 318.135 65.6408 318.135 64.6382H322.801C322.824 65.3104 322.994 65.8516 323.313 66.2617C323.644 66.6719 324.06 66.9681 324.561 67.1504C325.074 67.3327 325.626 67.4238 326.219 67.4238C326.857 67.4238 327.387 67.3384 327.808 67.1675C328.23 66.9852 328.549 66.7459 328.765 66.4497C328.993 66.1421 329.107 65.7889 329.107 65.3901Z" fill="white"></path><path d="M576.72 67.5522L581.676 46.6172H584.445L585.077 50.1035L579.796 71.5H576.823L576.72 67.5522ZM574.174 46.6172L578.275 67.5522L577.934 71.5H574.618L569.098 46.6172H574.174ZM589.435 67.4668L593.485 46.6172H598.561L593.058 71.5H589.743L589.435 67.4668ZM586 46.6172L590.99 67.6377L590.854 71.5H587.88L582.565 50.0864L583.249 46.6172H586ZM605.841 45.25V71.5H600.919V45.25H605.841ZM605.141 61.605H603.791C603.802 60.3175 603.973 59.1326 604.303 58.0503C604.634 56.9565 605.106 56.0109 605.722 55.2134C606.337 54.4045 607.072 53.7778 607.926 53.3335C608.792 52.8892 609.749 52.667 610.797 52.667C611.709 52.667 612.535 52.798 613.275 53.0601C614.027 53.3107 614.671 53.7209 615.207 54.2905C615.753 54.8488 616.175 55.5837 616.471 56.4951C616.767 57.4066 616.916 58.5117 616.916 59.8105V71.5H611.959V59.7764C611.959 58.9561 611.84 58.3123 611.601 57.8452C611.373 57.3667 611.037 57.0306 610.592 56.8369C610.159 56.6318 609.624 56.5293 608.986 56.5293C608.279 56.5293 607.676 56.6603 607.174 56.9224C606.684 57.1844 606.291 57.549 605.995 58.0161C605.699 58.4718 605.482 59.0073 605.346 59.6226C605.209 60.2378 605.141 60.8986 605.141 61.605ZM630.639 67.3301V59.0928C630.639 58.5003 630.542 57.9933 630.348 57.5718C630.154 57.1388 629.853 56.8027 629.442 56.5635C629.044 56.3242 628.525 56.2046 627.887 56.2046C627.34 56.2046 626.868 56.3014 626.469 56.4951C626.07 56.6774 625.762 56.9451 625.546 57.2983C625.329 57.6401 625.221 58.0446 625.221 58.5117H620.299C620.299 57.7256 620.482 56.9793 620.846 56.2729C621.211 55.5666 621.741 54.9456 622.436 54.4102C623.131 53.8633 623.957 53.436 624.914 53.1284C625.882 52.8208 626.964 52.667 628.161 52.667C629.596 52.667 630.872 52.9062 631.989 53.3848C633.105 53.8633 633.983 54.5811 634.621 55.5381C635.27 56.4951 635.595 57.6914 635.595 59.127V67.0396C635.595 68.0535 635.657 68.8853 635.783 69.5347C635.908 70.1727 636.09 70.731 636.33 71.2095V71.5H631.356C631.117 70.9987 630.935 70.3721 630.81 69.6201C630.696 68.8568 630.639 68.0934 630.639 67.3301ZM631.288 60.2378L631.322 63.0234H628.571C627.921 63.0234 627.357 63.0975 626.879 63.2456C626.4 63.3937 626.007 63.6045 625.7 63.8779C625.392 64.14 625.164 64.4476 625.016 64.8008C624.879 65.154 624.811 65.5413 624.811 65.9629C624.811 66.3844 624.908 66.7661 625.102 67.1079C625.295 67.4383 625.574 67.7004 625.939 67.894C626.304 68.0763 626.731 68.1675 627.221 68.1675C627.961 68.1675 628.605 68.0194 629.152 67.7231C629.699 67.4269 630.12 67.0623 630.417 66.6294C630.724 66.1965 630.884 65.7863 630.895 65.3989L632.194 67.4839C632.012 67.951 631.761 68.4352 631.442 68.9365C631.134 69.4378 630.741 69.9106 630.263 70.355C629.784 70.7879 629.209 71.1468 628.537 71.4316C627.864 71.7051 627.067 71.8418 626.144 71.8418C624.971 71.8418 623.905 71.6082 622.948 71.1411C622.003 70.6626 621.251 70.0075 620.692 69.1758C620.146 68.3327 619.872 67.3757 619.872 66.3047C619.872 65.3363 620.054 64.4761 620.419 63.7241C620.784 62.9722 621.319 62.3398 622.025 61.8271C622.743 61.3031 623.638 60.91 624.708 60.6479C625.779 60.3745 627.021 60.2378 628.434 60.2378H631.288ZM648.446 53.0088V56.4951H637.68V53.0088H648.446ZM640.346 48.4458H645.268V65.9287C645.268 66.4642 645.336 66.8743 645.473 67.1592C645.621 67.444 645.837 67.6434 646.122 67.7573C646.407 67.8599 646.766 67.9111 647.199 67.9111C647.506 67.9111 647.78 67.8997 648.019 67.877C648.27 67.8428 648.48 67.8086 648.651 67.7744L648.668 71.3975C648.247 71.5342 647.791 71.6424 647.301 71.7222C646.811 71.8019 646.27 71.8418 645.678 71.8418C644.595 71.8418 643.65 71.6652 642.841 71.312C642.043 70.9474 641.428 70.3664 640.995 69.5688C640.562 68.7713 640.346 67.7231 640.346 66.4243V48.4458ZM661.247 66.3901C661.247 66.0369 661.144 65.7179 660.939 65.4331C660.734 65.1483 660.352 64.8862 659.794 64.647C659.247 64.3963 658.455 64.1685 657.418 63.9634C656.484 63.7583 655.613 63.502 654.804 63.1943C654.006 62.8753 653.311 62.4937 652.719 62.0493C652.138 61.605 651.682 61.0809 651.352 60.4771C651.021 59.8618 650.856 59.1611 650.856 58.375C650.856 57.6003 651.021 56.8711 651.352 56.1875C651.693 55.5039 652.178 54.9001 652.804 54.376C653.442 53.8405 654.217 53.4246 655.128 53.1284C656.051 52.8208 657.088 52.667 658.239 52.667C659.845 52.667 661.224 52.9233 662.375 53.436C663.537 53.9487 664.425 54.6551 665.041 55.5552C665.667 56.4438 665.98 57.4578 665.98 58.5972H661.059C661.059 58.1187 660.956 57.6914 660.751 57.3154C660.557 56.9281 660.25 56.6261 659.828 56.4097C659.418 56.1818 658.882 56.0679 658.222 56.0679C657.675 56.0679 657.202 56.1647 656.803 56.3584C656.404 56.5407 656.097 56.7913 655.88 57.1104C655.675 57.418 655.573 57.7598 655.573 58.1357C655.573 58.4206 655.63 58.6769 655.744 58.9048C655.869 59.1213 656.068 59.3206 656.342 59.5029C656.615 59.6852 656.968 59.8561 657.401 60.0156C657.846 60.1637 658.393 60.3005 659.042 60.4258C660.375 60.6992 661.566 61.0581 662.614 61.5024C663.662 61.9354 664.494 62.5278 665.109 63.2798C665.724 64.0203 666.032 64.9945 666.032 66.2021C666.032 67.0225 665.849 67.7744 665.485 68.458C665.12 69.1416 664.596 69.7397 663.913 70.2524C663.229 70.7537 662.409 71.1468 661.452 71.4316C660.506 71.7051 659.441 71.8418 658.256 71.8418C656.535 71.8418 655.077 71.5342 653.881 70.9189C652.696 70.3037 651.796 69.5233 651.181 68.5776C650.577 67.6206 650.275 66.6408 650.275 65.6382H654.94C654.963 66.3104 655.134 66.8516 655.453 67.2617C655.784 67.6719 656.199 67.9681 656.701 68.1504C657.213 68.3327 657.766 68.4238 658.358 68.4238C658.996 68.4238 659.526 68.3384 659.948 68.1675C660.369 67.9852 660.688 67.7459 660.905 67.4497C661.133 67.1421 661.247 66.7889 661.247 66.3901ZM679.652 50.8726L672.885 71.5H667.433L676.679 46.6172H680.148L679.652 50.8726ZM685.275 71.5L678.49 50.8726L677.943 46.6172H681.447L690.744 71.5H685.275ZM684.967 62.2373V66.2534H671.825V62.2373H684.967ZM697.118 56.5635V78.6094H692.196V53.0088H696.759L697.118 56.5635ZM708.825 62.0493V62.4082C708.825 63.7526 708.665 65.0002 708.346 66.1509C708.039 67.3016 707.583 68.3042 706.979 69.1587C706.375 70.0018 705.623 70.6626 704.723 71.1411C703.834 71.6082 702.809 71.8418 701.647 71.8418C700.519 71.8418 699.539 71.6139 698.708 71.1582C697.876 70.7025 697.175 70.0645 696.605 69.2441C696.047 68.4124 695.597 67.4497 695.255 66.356C694.914 65.2622 694.652 64.0887 694.469 62.8354V61.8955C694.652 60.5511 694.914 59.3206 695.255 58.2041C695.597 57.0762 696.047 56.1021 696.605 55.2817C697.175 54.45 697.87 53.8063 698.69 53.3506C699.522 52.8949 700.496 52.667 701.613 52.667C702.786 52.667 703.817 52.8892 704.706 53.3335C705.606 53.7778 706.358 54.4159 706.962 55.2476C707.577 56.0793 708.039 57.0705 708.346 58.2212C708.665 59.3719 708.825 60.6479 708.825 62.0493ZM703.886 62.4082V62.0493C703.886 61.2632 703.817 60.5397 703.681 59.8789C703.555 59.2067 703.35 58.62 703.065 58.1187C702.792 57.6174 702.427 57.23 701.972 56.9565C701.527 56.6717 700.986 56.5293 700.348 56.5293C699.676 56.5293 699.101 56.6375 698.622 56.854C698.155 57.0705 697.773 57.3838 697.477 57.7939C697.181 58.2041 696.959 58.694 696.811 59.2637C696.662 59.8333 696.571 60.4771 696.537 61.1948V63.5703C696.594 64.4134 696.754 65.1711 697.016 65.8433C697.278 66.5041 697.682 67.0282 698.229 67.4155C698.776 67.8029 699.494 67.9966 700.382 67.9966C701.032 67.9966 701.579 67.8542 702.023 67.5693C702.467 67.2731 702.826 66.8687 703.1 66.356C703.384 65.8433 703.584 65.2508 703.698 64.5786C703.823 63.9064 703.886 63.1829 703.886 62.4082ZM716.806 56.5635V78.6094H711.884V53.0088H716.447L716.806 56.5635ZM728.512 62.0493V62.4082C728.512 63.7526 728.353 65.0002 728.034 66.1509C727.726 67.3016 727.27 68.3042 726.667 69.1587C726.063 70.0018 725.311 70.6626 724.411 71.1411C723.522 71.6082 722.497 71.8418 721.334 71.8418C720.207 71.8418 719.227 71.6139 718.395 71.1582C717.563 70.7025 716.863 70.0645 716.293 69.2441C715.735 68.4124 715.285 67.4497 714.943 66.356C714.601 65.2622 714.339 64.0887 714.157 62.8354V61.8955C714.339 60.5511 714.601 59.3206 714.943 58.2041C715.285 57.0762 715.735 56.1021 716.293 55.2817C716.863 54.45 717.558 53.8063 718.378 53.3506C719.21 52.8949 720.184 52.667 721.3 52.667C722.474 52.667 723.505 52.8892 724.394 53.3335C725.294 53.7778 726.046 54.4159 726.649 55.2476C727.265 56.0793 727.726 57.0705 728.034 58.2212C728.353 59.3719 728.512 60.6479 728.512 62.0493ZM723.573 62.4082V62.0493C723.573 61.2632 723.505 60.5397 723.368 59.8789C723.243 59.2067 723.038 58.62 722.753 58.1187C722.479 57.6174 722.115 57.23 721.659 56.9565C721.215 56.6717 720.674 56.5293 720.036 56.5293C719.363 56.5293 718.788 56.6375 718.31 56.854C717.842 57.0705 717.461 57.3838 717.165 57.7939C716.868 58.2041 716.646 58.694 716.498 59.2637C716.35 59.8333 716.259 60.4771 716.225 61.1948V63.5703C716.282 64.4134 716.441 65.1711 716.703 65.8433C716.965 66.5041 717.37 67.0282 717.917 67.4155C718.463 67.8029 719.181 67.9966 720.07 67.9966C720.719 67.9966 721.266 67.8542 721.71 67.5693C722.155 67.2731 722.514 66.8687 722.787 66.356C723.072 65.8433 723.271 65.2508 723.385 64.5786C723.511 63.9064 723.573 63.1829 723.573 62.4082Z" fill="white"></path><path d="M476.665 111.691C465.949 111.691 455.948 108.586 447.593 103.301L427.279 109.54L433.864 90.6708C427.528 82.31 423.801 72.0093 423.801 60.9023C423.801 32.8959 447.5 10.1147 476.634 10.1147C505.769 10.1147 529.467 32.8959 529.467 60.9023C529.467 88.9079 505.769 111.69 476.634 111.69L476.665 111.691ZM476.665 0.5C441.969 0.5 413.83 27.5526 413.83 60.9032C413.83 72.3085 417.122 82.9976 422.837 92.1041L411.5 124.5L446.288 113.781C455.587 118.724 466.04 121.313 476.665 121.305C511.36 121.305 539.5 94.2546 539.5 60.9032C539.499 27.5526 511.36 0.5 476.665 0.5Z" fill="#FEFEFE"></path><path d="M476.665 10.1148C447.531 10.1148 423.832 32.8959 423.832 60.9024C423.832 72.0094 427.559 82.31 433.895 90.6708L427.31 109.54L447.624 103.301C455.978 108.616 465.949 111.691 476.696 111.691C505.83 111.691 529.529 88.9088 529.529 60.9032C529.529 32.8968 505.83 10.1156 476.696 10.1156L476.665 10.1148Z" fill="url(#paint0_linear_518_2077)"></path><path d="M461.911 35.9133C460.886 33.5547 460.109 33.4654 458.557 33.4047C457.968 33.3682 457.377 33.3486 456.786 33.3458C454.767 33.3458 452.655 33.9129 451.381 35.1667C449.829 36.6894 445.977 40.242 445.977 47.5276C445.977 54.8132 451.506 61.8595 452.251 62.8454C453.027 63.8296 463.029 78.9974 478.559 85.1791C490.703 90.016 494.307 89.5677 497.071 89.0006C501.109 88.1647 506.172 85.2971 507.445 81.8347C508.719 78.3705 508.719 75.4145 508.346 74.7875C507.973 74.1606 506.948 73.8033 505.395 73.0559C503.843 72.3093 496.294 68.7263 494.865 68.2485C493.467 67.7412 492.132 67.9207 491.077 69.3541C489.586 71.3546 488.126 73.3853 486.945 74.6089C486.014 75.5645 484.491 75.6841 483.218 75.176C481.51 74.4901 476.727 72.8764 470.825 67.8306C466.259 63.9198 463.153 59.0535 462.253 57.5906C461.352 56.0983 462.16 55.2312 462.873 54.4256C463.65 53.4995 464.395 52.8431 465.172 51.9769C465.948 51.1115 466.383 50.6632 466.88 49.6478C467.409 48.6627 467.035 47.6473 466.663 46.9007C466.29 46.1541 463.185 38.8685 461.911 35.9133Z" fill="#FEFEFE"></path><defs><linearGradient id="paint0_linear_518_2077" x1="-69.4346" y1="-207.223" x2="-69.4346" y2="-202.674" gradientUnits="userSpaceOnUse"><stop stop-color="#6EBF61"></stop><stop offset="0.231" stop-color="#50A557"></stop><stop offset="0.522" stop-color="#2A904F"></stop><stop offset="0.812" stop-color="#50A557"></stop><stop offset="1" stop-color="#6EBF63"></stop></linearGradient></defs></svg>